<?xml version="1.0" standalone="no"?>
<!DOCTYPE svg PUBLIC "-//W3C//DTD SVG 20010904//EN"
 "http://www.w3.org/TR/2001/REC-SVG-20010904/DTD/svg10.dtd">
<svg version="1.0" xmlns="http://www.w3.org/2000/svg"
 width="512.000000pt" height="512.000000pt" viewBox="0 0 512.000000 512.000000"
 preserveAspectRatio="xMidYMid meet">
<metadata>
Created by potrace 1.11, written by Peter Selinger 2001-2013
</metadata>
<g transform="translate(0.000000,512.000000) scale(0.100000,-0.100000)"
fill="#000000" stroke="none">
<path d="M2474 5073 c-77 -40 -592 -333 -1129 -643 -88 -51 -180 -104 -205
-118 -25 -14 -62 -36 -83 -49 -21 -13 -53 -32 -70 -42 -321 -181 -610 -357
-617 -377 -18 -46 -22 -326 -24 -1428 -1 -899 1 -1122 11 -1132 19 -18 640
-386 938 -554 17 -9 102 -59 190 -110 88 -51 174 -100 192 -110 17 -10 123
-71 235 -136 111 -64 239 -138 283 -164 44 -26 144 -84 221 -129 l142 -82 51
31 c29 16 53 30 55 30 2 0 44 24 93 54 49 29 111 65 138 81 73 40 643 367 905
518 124 71 299 173 390 225 197 112 557 327 584 347 18 13 18 54 18 1257 -1
684 -1 1255 -1 1270 -1 35 -19 47 -392 261 -167 96 -344 198 -394 227 -129 75
-143 83 -210 120 -33 19 -177 102 -320 185 -143 84 -295 172 -338 196 -43 24
-86 49 -95 54 -66 39 -299 168 -408 226 l-71 37 -89 -45z m179 -410 c51 -26
182 -99 292 -161 110 -63 225 -128 255 -145 30 -17 67 -38 82 -49 14 -10 28
-18 31 -18 2 0 67 -36 143 -81 193 -112 378 -209 411 -215 39 -7 42 -14 6 -14
-17 0 -33 -6 -35 -12 -3 -11 -2 -294 1 -320 1 -5 82 -8 181 -8 l180 0 1 83 c0
56 3 75 9 61 5 -14 48 -42 114 -75 l105 -54 -4 -695 c-2 -382 -4 -871 -5
-1086 -1 -215 -5 -395 -8 -400 -4 -6 -29 -23 -57 -38 -27 -16 -90 -52 -140
-81 -211 -123 -333 -194 -375 -217 -61 -34 -194 -111 -440 -253 -172 -99 -594
-339 -773 -438 l-47 -27 -48 19 c-26 11 -76 35 -110 55 -35 20 -66 36 -68 36
-3 0 -190 106 -417 236 -227 130 -432 248 -456 262 -70 39 -614 351 -631 362
-8 5 -43 25 -77 45 l-63 36 -1 272 c0 150 -2 641 -5 1092 l-4 820 316 180
c174 99 328 187 343 195 52 30 389 225 501 290 413 241 678 388 698 390 2 0
45 -21 95 -47z"/>
<path d="M2618 3825 c-1 -1 -77 -6 -167 -9 -90 -3 -166 -8 -169 -11 -7 -6 -11
-2301 -5 -2368 4 -33 11 -50 24 -57 27 -15 300 -20 304 -6 2 6 6 328 9 716 3
388 5 768 6 845 l1 140 30 -100 c17 -55 32 -107 34 -116 2 -9 26 -93 54 -185
27 -93 77 -266 111 -384 34 -118 72 -251 85 -295 13 -44 58 -199 100 -345 42
-146 81 -269 86 -275 5 -5 85 -9 179 -10 144 0 170 2 171 15 3 52 3 2408 0
2423 -3 15 -19 17 -160 17 l-156 0 -2 -417 c-1 -230 -2 -609 -3 -843 l-1 -425
-60 190 c-58 186 -127 415 -134 445 -2 8 -12 44 -23 80 -12 36 -80 268 -153
517 -115 393 -143 474 -161 458z"/>
<path d="M1095 3805 c-120 -19 -201 -69 -242 -148 -24 -47 -24 -57 -27 -412
-2 -312 4 -485 19 -558 17 -82 63 -141 131 -168 62 -23 286 -44 522 -48 l52
-1 0 -400 0 -399 -180 0 c-99 -1 -180 3 -181 7 0 4 -3 61 -5 127 -2 66 -6 152
-8 190 l-3 70 -182 3 -183 2 6 -187 c6 -213 10 -246 38 -321 39 -103 120 -163
245 -180 68 -9 533 -8 573 2 14 3 39 9 56 12 52 10 126 73 155 132 14 29 26
58 26 65 0 7 4 46 8 87 4 41 9 201 10 355 3 508 -19 617 -137 672 -55 26 -112
35 -323 48 -192 12 -249 21 -267 42 -10 13 -13 93 -13 365 -1 307 1 348 15
349 8 1 26 3 40 5 75 9 257 7 277 -4 34 -19 43 -67 45 -235 1 -103 5 -157 12
-159 9 -3 308 -2 343 1 14 1 9 334 -6 425 -38 220 -165 280 -574 275 -95 -1
-203 -8 -242 -14z"/>
<path d="M3859 3095 c-5 -1055 -4 -1717 3 -1721 5 -3 83 -7 173 -8 l165 -2 0
81 c4 555 0 1819 -5 1824 -4 3 -81 6 -171 6 l-164 1 -1 -181z"/>
</g>
</svg>
